<svg id="Layer_1" data-name="Layer 1" xmlns="http://www.w3.org/2000/svg" viewBox="0 0 414 91.96"><defs><style>.cls-1{fill:#010101;}.cls-2{fill:#d1d3d4;}</style></defs><title>BASALT_master</title><path class="cls-1" d="M2.09,89.47V3.82H25.21C39.16,3.82,47,12.39,47,24.38a16.82,16.82,0,0,1-8.56,15.29C49.07,43.47,55.8,52,55.8,63.29,55.8,78,46,89.47,23.62,89.47ZM22.27,36c8.2,0,12-5,12-11.62C34.26,19.12,31.21,14,24,14H15.06V36ZM26.8,78.46c10.52,0,15.91-7.34,15.91-15.29A15.29,15.29,0,0,0,26.92,47.63H15.06V78.46Z"/><path class="cls-1" d="M150,72.56l11.13-6.36c2.81,7.59,8.56,11.87,15.17,11.87,8,0,12.48-5.51,12.48-13,0-15.29-33-22-33-43.43,0-11.75,9.67-19.82,20.43-19.82,7.83,0,14.44,3.55,18.35,9.79l-9.42,7.71c-2.08-3.18-4.89-5.75-8.56-5.75-4.53,0-7.83,3.55-7.83,8.2,0,12.11,33.16,19.82,33.16,43.19,0,14.32-11.13,25-25.69,25C165.15,89.93,154.38,84.3,150,72.56Z"/><path class="cls-1" d="M115.4,65.59H88.24l-7.1,23.74H67.2L94.84,3.68h13.83l27.65,85.65H122.5ZM91.79,53.85h20.07l-7.71-25.94a71.71,71.71,0,0,1-2.33-9.42,79.87,79.87,0,0,1-2.32,9.67Z"/><path class="cls-1" d="M313.5,88.71V3.06h13V76.47h32.18V88.71Z"/><path class="cls-1" d="M380.24,88.71V15.18h-18V3.06h49.06V15.18h-18V88.71Z"/><path class="cls-1" d="M293.55,80.29a6.22,6.22,0,0,1,1,3.56c0,2.86-1.68,5.18-3.75,5.18H218.15a3.75,3.75,0,0,1-3.28-2.71A6.81,6.81,0,0,1,215,81l36.29-78c1.39-3,4.93-3,6.31,0Zm-9.68-1.64L266,40.36l-9.35,20,8.54,18.33Zm-22.3-47.87-7.12-15.29L225,78.65h14.13Z"/><polygon class="cls-2" points="254.45 15.49 261.57 30.78 239.15 78.65 225.02 78.65 254.45 15.49"/></svg>