<svg id="Layer_1" data-name="Layer 1" xmlns="http://www.w3.org/2000/svg" viewBox="0 0 413.98 92.16"><defs><style>.cls-1{fill:#fff;}</style></defs><title>BASALT_master</title><path class="cls-1" d="M2.43,89.4V3.75H25.56c13.95,0,21.78,8.56,21.78,20.55A16.82,16.82,0,0,1,38.77,39.6C49.42,43.4,56.14,52,56.14,63.22,56.14,77.9,46.36,89.4,24,89.4ZM22.62,35.93c8.2,0,12-5,12-11.62,0-5.26-3.06-10.4-10.28-10.4H15.4v22Zm4.53,42.46c10.52,0,15.91-7.34,15.91-15.29A15.29,15.29,0,0,0,27.27,47.56H15.4V78.39Z"/><path class="cls-1" d="M150.32,73.49l11.13-6.36C164.27,74.71,170,79,176.63,79c8,0,12.48-5.51,12.48-13,0-15.29-33-22-33-43.43,0-11.75,9.67-19.82,20.43-19.82,7.83,0,14.44,3.55,18.35,9.79l-9.42,7.71c-2.08-3.18-4.89-5.75-8.56-5.75-4.53,0-7.83,3.55-7.83,8.2,0,12.11,33.16,19.82,33.16,43.19,0,14.32-11.13,25-25.69,25C165.49,90.86,154.73,85.23,150.32,73.49Z"/><path class="cls-1" d="M115.75,65.52H88.59l-7.1,23.74H67.54L95.19,3.61H109l27.65,85.65H122.84ZM92.13,53.78H112.2l-7.71-25.94a71.71,71.71,0,0,1-2.33-9.42,79.87,79.87,0,0,1-2.32,9.67Z"/><path class="cls-1" d="M313.85,89.64V4h13V77.4H359V89.64Z"/><path class="cls-1" d="M380.59,89.64V16.1h-18V4h49.06V16.1h-18V89.64Z"/><g id="_Group_" data-name="&lt;Group&gt;"><path class="cls-1" d="M293.9,80.22a6.2,6.2,0,0,1,1,3.55c0,2.86-1.68,5.18-3.75,5.18H218.49a3.75,3.75,0,0,1-3.28-2.71,6.89,6.89,0,0,1,.14-5.29L251.65,3C253,0,256.58,0,258,3Zm-9.69-1.64-17.84-38.3-9.35,20,8.54,18.33ZM261.92,30.7,254.8,15.42,225.37,78.58H239.5Z"/></g></svg>