<svg id="Layer_1" data-name="Layer 1" xmlns="http://www.w3.org/2000/svg" viewBox="0 0 518 268.09"><defs><style>.cls-1{fill:#010101;}.cls-2{fill:#fff;}</style></defs><title>BASALT_master</title><path class="cls-1" d="M57.68,181.57V98.91H80c13.46,0,21,8.27,21,19.84a16.23,16.23,0,0,1-8.27,14.76c10.27,3.66,16.77,11.93,16.77,22.79,0,14.17-9.45,25.27-31.06,25.27ZM77.16,130c7.91,0,11.57-4.84,11.57-11.22,0-5.08-3-10-9.92-10H70.2V130Zm4.37,41c10.16,0,15.35-7.09,15.35-14.76a14.76,14.76,0,0,0-15.23-15H70.2v29.76Z"/><path class="cls-1" d="M201.39,163.32l10.75-6.14c2.72,7.32,8.27,11.46,14.64,11.46,7.68,0,12-5.31,12-12.52,0-14.76-31.89-21.26-31.89-41.92,0-11.34,9.33-19.13,19.72-19.13,7.56,0,13.93,3.42,17.71,9.45L235.28,112c-2-3.07-4.72-5.55-8.27-5.55-4.37,0-7.56,3.42-7.56,7.91,0,11.69,32,19.13,32,41.69,0,13.82-10.74,24.09-24.8,24.09C216,180.09,205.64,174.66,201.39,163.32Z"/><path class="cls-1" d="M169.95,154.67H143.73l-6.85,22.91H123.42L150.1,94.91h13.35l26.69,82.66H176.79Zm-22.79-11.34h19.37l-7.44-25a69.21,69.21,0,0,1-2.25-9.09,77.09,77.09,0,0,1-2.24,9.33Z"/><path class="cls-1" d="M365,178.91V96.24h12.52V167.1h31.06v11.81Z"/><path class="cls-1" d="M432.32,178.91v-71H415V96.24h47.35v11.69H445v71Z"/><path class="cls-1" d="M345.54,174.14a6.35,6.35,0,0,1,1.05,3.64c0,2.93-1.72,5.3-3.84,5.3H268.37a3.84,3.84,0,0,1-3.36-2.77,7.05,7.05,0,0,1,.15-5.41L302.3,95.1c1.43-3,5.05-3,6.46,0Zm-9.91-1.68-18.26-39.19L307.8,153.7l8.74,18.76Zm-22.81-49-7.29-15.65L275.4,172.46h14.46Z"/><polygon class="cls-2" points="317.37 133.27 335.63 172.46 316.54 172.46 307.8 153.7 317.37 133.27"/><polygon class="cls-2" points="305.52 107.81 312.81 123.46 289.86 172.46 275.4 172.46 305.52 107.81"/></svg>