<svg id="Layer_1" data-name="Layer 1" xmlns="http://www.w3.org/2000/svg" viewBox="0 0 413.98 91.96"><defs><style>.cls-1{fill:#010101;}</style></defs><title>BASALT_master</title><path class="cls-1" d="M2.28,89.52V3.87H25.41c13.95,0,21.78,8.56,21.78,20.55a16.82,16.82,0,0,1-8.56,15.29C49.27,43.52,56,52.08,56,63.34,56,78,46.21,89.52,23.82,89.52ZM22.47,36.05c8.2,0,12-5,12-11.62,0-5.26-3.06-10.4-10.28-10.4H15.25v22ZM27,78.51c10.52,0,15.91-7.34,15.91-15.29A15.29,15.29,0,0,0,27.12,47.68H15.25V78.51Z"/><path class="cls-1" d="M150.17,72.61l11.13-6.36c2.81,7.59,8.56,11.87,15.17,11.87,8,0,12.48-5.51,12.48-13,0-15.29-33-22-33-43.43,0-11.75,9.67-19.82,20.43-19.82,7.83,0,14.44,3.55,18.35,9.79l-9.42,7.71c-2.08-3.18-4.89-5.75-8.56-5.75-4.53,0-7.83,3.55-7.83,8.2C168.89,33.95,202,41.65,202,65c0,14.32-11.13,25-25.69,25C165.34,90,154.58,84.35,150.17,72.61Z"/><path class="cls-1" d="M115.6,65.64H88.44l-7.1,23.74H67.39L95,3.73h13.83l27.65,85.65H122.69ZM92,53.9H112L104.34,28A71.71,71.71,0,0,1,102,18.54a79.87,79.87,0,0,1-2.32,9.67Z"/><path class="cls-1" d="M313.7,88.76V3.11h13V76.52h32.18V88.76Z"/><path class="cls-1" d="M380.44,88.76V15.23h-18V3.11h49.06V15.23h-18V88.76Z"/><g id="_Group_" data-name="&lt;Group&gt;"><path class="cls-1" d="M293.75,80.34a6.2,6.2,0,0,1,1,3.55c0,2.86-1.68,5.18-3.75,5.18H218.34a3.75,3.75,0,0,1-3.28-2.71,6.89,6.89,0,0,1,.14-5.29l36.29-78c1.39-3,4.94-3,6.32,0Zm-9.69-1.64-17.84-38.3-9.35,20,8.54,18.33ZM261.77,30.83l-7.12-15.29L225.22,78.7h14.13Z"/></g></svg>