<svg id="Layer_1" data-name="Layer 1" xmlns="http://www.w3.org/2000/svg" viewBox="0 0 518 268.09"><defs><style>.cls-1{fill:#010101;}.cls-2{fill:#d1d3d4;}</style></defs><title>BASALT_master</title><path class="cls-1" d="M50,184.1V98.29H73.17c14,0,21.82,8.58,21.82,20.59a16.85,16.85,0,0,1-8.58,15.32c10.66,3.8,17.41,12.38,17.41,23.66,0,14.71-9.81,26.23-32.24,26.23Zm20.22-53.56c8.21,0,12-5,12-11.65,0-5.27-3.06-10.42-10.3-10.42H63v22.06Zm4.53,42.53c10.54,0,15.93-7.35,15.93-15.32a15.32,15.32,0,0,0-15.81-15.57H63v30.89Z"/><path class="cls-1" d="M199.16,165.15l11.15-6.37c2.82,7.6,8.58,11.89,15.2,11.89,8,0,12.5-5.52,12.5-13,0-15.32-33.1-22.06-33.1-43.51,0-11.77,9.68-19.86,20.47-19.86,7.84,0,14.46,3.55,18.38,9.81l-9.44,7.72c-2.08-3.19-4.9-5.76-8.58-5.76-4.53,0-7.84,3.55-7.84,8.21,0,12.14,33.22,19.86,33.22,43.27,0,14.34-11.15,25-25.74,25C214.36,182.55,203.57,176.92,199.16,165.15Z"/><path class="cls-1" d="M166.53,156.17H139.32l-7.11,23.78h-14l27.7-85.8h13.85l27.7,85.8H173.64ZM142.87,144.4H163l-7.72-26a71.84,71.84,0,0,1-2.33-9.44,80,80,0,0,1-2.33,9.68Z"/><path class="cls-1" d="M369,181.33V95.53h13v73.54h32.24v12.26Z"/><path class="cls-1" d="M438.87,181.33V107.66h-18V95.53H470v12.13H452v73.67Z"/><g id="_Group_" data-name="&lt;Group&gt;"><path class="cls-1" d="M348.79,176.38a6.59,6.59,0,0,1,1.09,3.78c0,3-1.78,5.51-4,5.51H268.68a4,4,0,0,1-3.49-2.88,7.32,7.32,0,0,1,.15-5.62L303.9,94.34c1.48-3.15,5.24-3.15,6.71,0Zm-10.29-1.74-19-40.68-9.93,21.2,9.07,19.48Zm-23.68-50.86-7.57-16.24L276,174.64h15Z"/><polygon class="cls-2" points="307.25 107.54 314.81 123.78 291 174.64 275.99 174.64 307.25 107.54"/></g></svg>