<svg id="Layer_1" data-name="Layer 1" xmlns="http://www.w3.org/2000/svg" viewBox="0 0 274 268.09"><defs><style>.cls-1{fill:#fff;}.cls-2{fill:#d4cb02;}</style></defs><title>BASALT_master</title><path class="cls-1" d="M231.75,219.2a15.32,15.32,0,0,1,2.49,8.62c0,6.95-4.07,12.57-9.09,12.57H48.84c-3.35,0-6.38-2.5-8-6.57A16.71,16.71,0,0,1,41.2,221L129.26,31.87c3.38-7.2,12-7.2,15.32,0Zm-23.53-4L165,122.33,142.3,170.75,163,215.22Zm-54-116.14L136.87,62,65.52,215.22H99.79Z"/><polygon class="cls-2" points="136.87 62 154.18 99.08 99.79 215.22 65.52 215.22 136.87 62"/></svg>