<svg id="Layer_1" data-name="Layer 1" xmlns="http://www.w3.org/2000/svg" viewBox="0 0 199.44 219"><defs><style>.cls-1{fill:#010101;}.cls-2{fill:#d1d3d4;}</style></defs><title>BASALT_master</title><path class="cls-1" d="M194.47,194.8a15.36,15.36,0,0,1,2.49,8.63c0,6.94-4.07,12.57-9.09,12.57H11.56c-3.35,0-6.38-2.5-8-6.57a16.74,16.74,0,0,1,.32-12.83L92,7.47c3.37-7.2,12-7.2,15.31,0Zm-23.53-4L127.7,97.93,105,146.35l20.69,44.47Zm-54-116.13L99.59,37.61,28.24,190.82H62.51Z"/><polygon class="cls-2" points="99.59 37.61 116.9 74.69 62.51 190.82 28.24 190.82 99.59 37.61"/></svg>