<svg id="Layer_1" data-name="Layer 1" xmlns="http://www.w3.org/2000/svg" viewBox="0 0 274 268.09"><defs><style>.cls-1{fill:#d1d3d4;}.cls-2{fill:#010101;}</style></defs><title>BASALT_master</title><polygon class="cls-1" points="136.87 61.84 154.18 98.92 99.79 215.05 65.52 215.05 136.87 61.84"/><path class="cls-2" d="M231.75,219a15.36,15.36,0,0,1,2.49,8.63c0,6.94-4.07,12.57-9.09,12.57H48.84c-3.35,0-6.38-2.5-8-6.57a16.74,16.74,0,0,1,.32-12.83L129.26,31.7c3.37-7.2,12-7.2,15.31,0Zm-23.53-4L165,122.16,142.3,170.58,163,215.05Zm-54-116.13L136.87,61.84,65.52,215.05H99.79Z"/></svg>