<svg id="Layer_1" data-name="Layer 1" xmlns="http://www.w3.org/2000/svg" viewBox="0 0 518 268.09"><defs><style>.cls-1{fill:#fff;}</style></defs><title>BASALT_master</title><path class="cls-1" d="M51,180.57V94.41H74.31c14,0,21.91,8.62,21.91,20.68a16.92,16.92,0,0,1-8.62,15.39c10.71,3.82,17.48,12.43,17.48,23.76,0,14.77-9.85,26.34-32.37,26.34Zm20.31-53.79c8.25,0,12.06-5,12.06-11.69,0-5.29-3.08-10.46-10.34-10.46h-9v22.16Zm4.55,42.71c10.59,0,16-7.38,16-15.39A15.38,15.38,0,0,0,76,138.47H64.09v31Z"/><path class="cls-1" d="M205,164.32l11.2-6.4c2.83,7.63,8.62,11.94,15.26,11.94,8,0,12.56-5.54,12.56-13,0-15.39-33.24-22.16-33.24-43.7,0-11.82,9.73-19.94,20.56-19.94,7.88,0,14.52,3.57,18.46,9.85l-9.48,7.75c-2.09-3.2-4.92-5.79-8.62-5.79-4.55,0-7.88,3.57-7.88,8.25,0,12.19,33.36,19.94,33.36,43.45,0,14.4-11.2,25.11-25.85,25.11C220.27,181.8,209.43,176.14,205,164.32Z"/><path class="cls-1" d="M169.45,152.52H142.13L135,176.4H121l27.82-86.16h13.91L190.5,176.4H176.59ZM145.7,140.71h20.19l-7.75-26.09a72.14,72.14,0,0,1-2.34-9.48,80.36,80.36,0,0,1-2.34,9.72Z"/><path class="cls-1" d="M374.17,177.79V91.63h13v73.85h32.37v12.31Z"/><path class="cls-1" d="M442.94,177.79v-74H424.85V91.63h49.36v12.19H456.11v74Z"/><g id="_Group_" data-name="&lt;Group&gt;"><path class="cls-1" d="M355.26,171a6.62,6.62,0,0,1,1.1,3.79c0,3.06-1.79,5.53-4,5.53H274.82a4,4,0,0,1-3.5-2.89,7.35,7.35,0,0,1,.15-5.64l38.71-83.18c1.49-3.17,5.26-3.17,6.74,0Zm-10.33-1.75-19-40.85-10,21.29L325,169.29Zm-23.78-51.08-7.6-16.31-31.39,67.38h15.07Z"/></g></svg>