<svg id="Layer_1" data-name="Layer 1" xmlns="http://www.w3.org/2000/svg" viewBox="0 0 518 268.09"><defs><style>.cls-1{fill:#fff;}.cls-2{fill:#d4cb02;}</style></defs><title>BASALT_master</title><path class="cls-1" d="M50.28,180.95V95.22H73.42c14,0,21.8,8.57,21.8,20.57a16.83,16.83,0,0,1-8.57,15.31C97.3,134.9,104,143.47,104,154.74c0,14.7-9.8,26.21-32.21,26.21Zm20.21-53.51c8.2,0,12-5,12-11.63,0-5.27-3.06-10.41-10.29-10.41H63.26v22ZM75,169.92c10.53,0,15.92-7.35,15.92-15.31a15.31,15.31,0,0,0-15.8-15.55H63.26v30.86Z"/><path class="cls-1" d="M203.45,163.4,214.59,157c2.82,7.59,8.57,11.88,15.18,11.88,8,0,12.49-5.51,12.49-13,0-15.31-33.07-22-33.07-43.47,0-11.76,9.68-19.84,20.45-19.84,7.84,0,14.45,3.55,18.37,9.8l-9.43,7.71c-2.08-3.18-4.9-5.76-8.57-5.76-4.53,0-7.84,3.55-7.84,8.2,0,12.12,33.19,19.84,33.19,43.23,0,14.33-11.14,25-25.71,25C218.63,180.79,207.86,175.15,203.45,163.4Z"/><path class="cls-1" d="M168.08,154.42H140.89l-7.1,23.76h-14l27.67-85.72h13.84L189,178.18H175.18Zm-23.64-11.76h20.08l-7.71-26a71.77,71.77,0,0,1-2.33-9.43,79.94,79.94,0,0,1-2.33,9.67Z"/><path class="cls-1" d="M371.74,178.18V92.46h13v73.48h32.21v12.25Z"/><path class="cls-1" d="M440.17,178.18v-73.6h-18V92.46h49.11v12.12h-18v73.6Z"/><path class="cls-1" d="M352.93,171.47a6.58,6.58,0,0,1,1.09,3.77c0,3-1.78,5.5-4,5.5H272.91a4,4,0,0,1-3.48-2.87,7.31,7.31,0,0,1,.15-5.61l38.51-82.75c1.48-3.15,5.24-3.15,6.7,0Zm-10.28-1.74-18.93-40.64-9.92,21.18,9.07,19.46ZM319,118.92l-7.56-16.22-31.23,67h15Z"/><polygon class="cls-2" points="311.44 102.69 319 118.92 295.2 169.73 280.2 169.73 311.44 102.69"/></svg>