<svg id="Layer_1" data-name="Layer 1" xmlns="http://www.w3.org/2000/svg" viewBox="0 0 518 268.09"><defs><style>.cls-1{fill:#fff;}.cls-2{fill:#808285;}</style></defs><title>BASALT_master</title><path class="cls-1" d="M47.82,182.73V96.29H71.16c14.08,0,22,8.64,22,20.74a17,17,0,0,1-8.64,15.44C95.24,136.3,102,144.94,102,156.3c0,14.82-9.88,26.42-32.48,26.42Zm20.37-54c8.27,0,12.1-5.06,12.1-11.73,0-5.31-3.09-10.5-10.37-10.5h-9v22.23Zm4.57,42.85c10.62,0,16.05-7.41,16.05-15.43A15.43,15.43,0,0,0,72.88,140.5h-12v31.12Z"/><path class="cls-1" d="M202.26,165l11.24-6.42c2.84,7.66,8.64,12,15.31,12,8,0,12.6-5.56,12.6-13.09,0-15.43-33.34-22.23-33.34-43.84,0-11.85,9.76-20,20.62-20,7.9,0,14.57,3.58,18.52,9.88l-9.51,7.78c-2.1-3.21-4.94-5.8-8.64-5.8-4.57,0-7.9,3.58-7.9,8.27,0,12.23,33.46,20,33.46,43.59,0,14.45-11.24,25.19-25.93,25.19C217.57,182.57,206.71,176.89,202.26,165Z"/><path class="cls-1" d="M166.6,154.59H139.19l-7.16,24H118l27.91-86.44h14l27.91,86.44h-14Zm-23.83-11.85H163l-7.78-26.18a72.37,72.37,0,0,1-2.35-9.51,80.61,80.61,0,0,1-2.35,9.75Z"/><path class="cls-1" d="M372,179.94V93.5h13.09v74.09h32.48v12.35Z"/><path class="cls-1" d="M441,179.94V105.73H422.8V93.5h49.52v12.22H454.17v74.21Z"/><path class="cls-1" d="M353,173.17a6.64,6.64,0,0,1,1.1,3.8c0,3.07-1.8,5.55-4,5.55H272.3a4,4,0,0,1-3.51-2.9,7.38,7.38,0,0,1,.15-5.66l38.84-83.44c1.49-3.18,5.28-3.18,6.76,0Zm-10.37-1.76-19.09-41-10,21.36,9.14,19.62Zm-23.86-51.24-7.62-16.36-31.49,67.6h15.12Z"/><polygon class="cls-2" points="311.15 103.82 318.77 120.18 294.78 171.42 279.66 171.42 311.15 103.82"/></svg>