<?xml version="1.0" encoding="UTF-8"?>
<svg width="220px" height="220px" viewBox="0 0 220 220" version="1.1" xmlns="http://www.w3.org/2000/svg" xmlns:xlink="http://www.w3.org/1999/xlink">
    <!-- Generator: Sketch 51.2 (57519) - http://www.bohemiancoding.com/sketch -->
    <title>Basic Block</title>
    <desc>Created with Sketch.</desc>
    <defs></defs>
    <g id="Page-1" stroke="none" stroke-width="1" fill="none" fill-rule="evenodd">
        <g id="Components" transform="translate(-843.000000, -35.000000)">
            <g id="Basic-Block" transform="translate(843.000000, 35.000000)">
                <rect id="Rectangle" stroke="#3578C7" stroke-width="1" fill="#4A90E2" x="0.5" y="0.5" width="219" height="219" rx="15"></rect>
                <path d="M35,37 L186,37 C190.970563,37 195,41.0294373 195,46 L195,52 C195,56.9705627 190.970563,61 186,61 L151.680997,61 L35,61 C30.0294373,61 26,56.9705627 26,52 L26,46 C26,41.0294373 30.0294373,37 35,37 Z" id="Rectangle-2" fill="#FFFFFF"></path>
                <rect id="Rectangle-2" fill="#FFFFFF" opacity="0.602901786" x="26" y="84" width="169" height="8" rx="4"></rect>
                <rect id="Rectangle-2" fill="#FFFFFF" opacity="0.602901786" x="44" y="104" width="133" height="8" rx="4"></rect>
                <rect id="Rectangle-2" fill="#FFFFFF" opacity="0.602901786" x="44" y="124" width="133" height="8" rx="4"></rect>
                <rect id="Rectangle-2" fill="#FFFFFF" opacity="0.602901786" x="75" y="144" width="70" height="8" rx="4"></rect>
                <g id="Button" transform="translate(70.000000, 173.000000)">
                    <rect id="Rectangle-2" fill="#76ABE9" x="0" y="0" width="81.7728532" height="18" rx="9"></rect>
                    <rect id="Rectangle-2" fill="#DBE9F9" x="20.9418283" y="6" width="43" height="6" rx="3"></rect>
                </g>
            </g>
        </g>
    </g>
</svg>