<svg id="Layer_1" data-name="Layer 1" xmlns="http://www.w3.org/2000/svg" viewBox="0 0 199.52 219"><defs><style>.cls-1{fill:#010101;}.cls-2{fill:#d4cb02;}</style></defs><title>BASALT_master</title><g id="_Group_" data-name="&lt;Group&gt;"><path class="cls-1" d="M194,194.92a15.29,15.29,0,0,1,2.5,8.62c0,6.95-4.07,12.57-9.1,12.57H11.07c-3.35,0-6.38-2.5-8-6.57a16.72,16.72,0,0,1,.32-12.82L91.48,7.59c3.38-7.2,12-7.2,15.32,0Zm-23.53-4L127.2,98l-22.68,48.42,20.69,44.47ZM116.4,74.8,99.09,37.72,27.74,190.94H62Z"/><polygon class="cls-2" points="99.09 37.72 116.4 74.8 62.01 190.94 27.74 190.94 99.09 37.72"/></g></svg>