<svg id="Layer_1" data-name="Layer 1" xmlns="http://www.w3.org/2000/svg" viewBox="0 0 199.44 219"><defs><style>.cls-1{fill:#fff;}.cls-2{fill:#6d6e71;}</style></defs><title>BASALT_master</title><path class="cls-1" d="M194.47,194.52a15.32,15.32,0,0,1,2.49,8.62c0,6.95-4.07,12.57-9.09,12.57H11.56c-3.35,0-6.38-2.5-8-6.57a16.71,16.71,0,0,1,.32-12.82L92,7.19c3.37-7.2,12-7.2,15.31,0Zm-23.53-4L127.7,97.65,105,146.07l20.69,44.47ZM116.9,74.4,99.59,37.32,28.24,190.54H62.51Z"/><polygon class="cls-2" points="99.59 37.32 116.9 74.4 62.51 190.54 28.24 190.54 99.59 37.32"/></svg>