<?xml version="1.0" encoding="UTF-8"?>
<svg width="220px" height="220px" viewBox="0 0 220 220" version="1.1" xmlns="http://www.w3.org/2000/svg" xmlns:xlink="http://www.w3.org/1999/xlink">
    <!-- Generator: Sketch 51.2 (57519) - http://www.bohemiancoding.com/sketch -->
    <title>Breakpoints</title>
    <desc>Created with Sketch.</desc>
    <defs></defs>
    <g id="Page-1" stroke="none" stroke-width="1" fill="none" fill-rule="evenodd">
        <g id="Visual-Language" transform="translate(-635.000000, -319.000000)">
            <g id="Breakpoints" transform="translate(635.000000, 319.000000)">
                <rect id="Rectangle" stroke="#CACACA" stroke-width="1" fill="#F5F5F5" fill-rule="evenodd" x="0.5" y="0.5" width="219" height="219" rx="15"></rect>
                <text id="320px" font-family="Avenir-Light, Avenir" font-size="11" font-weight="300" fill="#6F6F6F">
                    <tspan x="73" y="74">320px</tspan>
                </text>
                <text id="450px" font-family="Avenir-Light, Avenir" font-size="11" font-weight="300" fill="#6F6F6F">
                    <tspan x="99" y="101">450px</tspan>
                </text>
                <text id="700px" font-family="Avenir-Light, Avenir" font-size="11" font-weight="300" fill="#6F6F6F">
                    <tspan x="128" y="127">700px</tspan>
                </text>
                <text id="900px" font-family="Avenir-Light, Avenir" font-size="11" font-weight="300" fill="#6F6F6F">
                    <tspan x="158" y="153">900px</tspan>
                </text>
                <path id="Line" d="M66.5686275,75.5 L66.5686275,63.5 L66.5686275,62.5 L64.5686275,62.5 L64.5686275,63.5 L64.5686275,75.5 L64.5686275,76.5 L66.5686275,76.5 L66.5686275,75.5 Z M22.4313725,70.5 L27.4313725,70.5 L28.4313725,70.5 L28.4313725,68.5 L27.4313725,68.5 L22.4313725,68.5 L21.4313725,68.5 L21.4313725,70.5 L22.4313725,70.5 Z M32.4313725,70.5 L37.4313725,70.5 L38.4313725,70.5 L38.4313725,68.5 L37.4313725,68.5 L32.4313725,68.5 L31.4313725,68.5 L31.4313725,70.5 L32.4313725,70.5 Z M42.4313725,70.5 L47.4313725,70.5 L48.4313725,70.5 L48.4313725,68.5 L47.4313725,68.5 L42.4313725,68.5 L41.4313725,68.5 L41.4313725,70.5 L42.4313725,70.5 Z M52.4313725,70.5 L57.4313725,70.5 L58.4313725,70.5 L58.4313725,68.5 L57.4313725,68.5 L52.4313725,68.5 L51.4313725,68.5 L51.4313725,70.5 L52.4313725,70.5 Z M62.4313725,70.5 L65.5686275,70.5 L66.5686275,70.5 L66.5686275,68.5 L65.5686275,68.5 L62.4313725,68.5 L61.4313725,68.5 L61.4313725,70.5 L62.4313725,70.5 Z" fill="#000000" fill-rule="nonzero"></path>
                <path id="Line" d="M91.56875,102.5 L91.56875,90.5 L91.56875,89.5 L89.56875,89.5 L89.56875,90.5 L89.56875,102.5 L89.56875,103.5 L91.56875,103.5 L91.56875,102.5 Z M22.43125,97.5 L27.43125,97.5 L28.43125,97.5 L28.43125,95.5 L27.43125,95.5 L22.43125,95.5 L21.43125,95.5 L21.43125,97.5 L22.43125,97.5 Z M32.43125,97.5 L37.43125,97.5 L38.43125,97.5 L38.43125,95.5 L37.43125,95.5 L32.43125,95.5 L31.43125,95.5 L31.43125,97.5 L32.43125,97.5 Z M42.43125,97.5 L47.43125,97.5 L48.43125,97.5 L48.43125,95.5 L47.43125,95.5 L42.43125,95.5 L41.43125,95.5 L41.43125,97.5 L42.43125,97.5 Z M52.43125,97.5 L57.43125,97.5 L58.43125,97.5 L58.43125,95.5 L57.43125,95.5 L52.43125,95.5 L51.43125,95.5 L51.43125,97.5 L52.43125,97.5 Z M62.43125,97.5 L67.43125,97.5 L68.43125,97.5 L68.43125,95.5 L67.43125,95.5 L62.43125,95.5 L61.43125,95.5 L61.43125,97.5 L62.43125,97.5 Z M72.43125,97.5 L77.43125,97.5 L78.43125,97.5 L78.43125,95.5 L77.43125,95.5 L72.43125,95.5 L71.43125,95.5 L71.43125,97.5 L72.43125,97.5 Z M82.43125,97.5 L87.43125,97.5 L88.43125,97.5 L88.43125,95.5 L87.43125,95.5 L82.43125,95.5 L81.43125,95.5 L81.43125,97.5 L82.43125,97.5 Z" fill="#000000" fill-rule="nonzero"></path>
                <path id="Line" d="M119.566964,128.5 L119.566964,116.5 L119.566964,115.5 L117.566964,115.5 L117.566964,116.5 L117.566964,128.5 L117.566964,129.5 L119.566964,129.5 L119.566964,128.5 Z M22.4330357,123.5 L27.4330357,123.5 L28.4330357,123.5 L28.4330357,121.5 L27.4330357,121.5 L22.4330357,121.5 L21.4330357,121.5 L21.4330357,123.5 L22.4330357,123.5 Z M32.4330357,123.5 L37.4330357,123.5 L38.4330357,123.5 L38.4330357,121.5 L37.4330357,121.5 L32.4330357,121.5 L31.4330357,121.5 L31.4330357,123.5 L32.4330357,123.5 Z M42.4330357,123.5 L47.4330357,123.5 L48.4330357,123.5 L48.4330357,121.5 L47.4330357,121.5 L42.4330357,121.5 L41.4330357,121.5 L41.4330357,123.5 L42.4330357,123.5 Z M52.4330357,123.5 L57.4330357,123.5 L58.4330357,123.5 L58.4330357,121.5 L57.4330357,121.5 L52.4330357,121.5 L51.4330357,121.5 L51.4330357,123.5 L52.4330357,123.5 Z M62.4330357,123.5 L67.4330357,123.5 L68.4330357,123.5 L68.4330357,121.5 L67.4330357,121.5 L62.4330357,121.5 L61.4330357,121.5 L61.4330357,123.5 L62.4330357,123.5 Z M72.4330357,123.5 L77.4330357,123.5 L78.4330357,123.5 L78.4330357,121.5 L77.4330357,121.5 L72.4330357,121.5 L71.4330357,121.5 L71.4330357,123.5 L72.4330357,123.5 Z M82.4330357,123.5 L87.4330357,123.5 L88.4330357,123.5 L88.4330357,121.5 L87.4330357,121.5 L82.4330357,121.5 L81.4330357,121.5 L81.4330357,123.5 L82.4330357,123.5 Z M92.4330357,123.5 L97.4330357,123.5 L98.4330357,123.5 L98.4330357,121.5 L97.4330357,121.5 L92.4330357,121.5 L91.4330357,121.5 L91.4330357,123.5 L92.4330357,123.5 Z M102.433036,123.5 L107.433036,123.5 L108.433036,123.5 L108.433036,121.5 L107.433036,121.5 L102.433036,121.5 L101.433036,121.5 L101.433036,123.5 L102.433036,123.5 Z M112.433036,123.5 L117.433036,123.5 L118.433036,123.5 L118.433036,121.5 L117.433036,121.5 L112.433036,121.5 L111.433036,121.5 L111.433036,123.5 L112.433036,123.5 Z" fill="#000000" fill-rule="nonzero"></path>
                <path id="Line" d="M150.564626,154.25 L150.564626,142.25 L150.564626,141.25 L148.564626,141.25 L148.564626,142.25 L148.564626,154.25 L148.564626,155.25 L150.564626,155.25 L150.564626,154.25 Z M22.4353741,149.25 L27.4353741,149.25 L28.4353741,149.25 L28.4353741,147.25 L27.4353741,147.25 L22.4353741,147.25 L21.4353741,147.25 L21.4353741,149.25 L22.4353741,149.25 Z M32.4353741,149.25 L37.4353741,149.25 L38.4353741,149.25 L38.4353741,147.25 L37.4353741,147.25 L32.4353741,147.25 L31.4353741,147.25 L31.4353741,149.25 L32.4353741,149.25 Z M42.4353741,149.25 L47.4353741,149.25 L48.4353741,149.25 L48.4353741,147.25 L47.4353741,147.25 L42.4353741,147.25 L41.4353741,147.25 L41.4353741,149.25 L42.4353741,149.25 Z M52.4353741,149.25 L57.4353741,149.25 L58.4353741,149.25 L58.4353741,147.25 L57.4353741,147.25 L52.4353741,147.25 L51.4353741,147.25 L51.4353741,149.25 L52.4353741,149.25 Z M62.4353741,149.25 L67.4353741,149.25 L68.4353741,149.25 L68.4353741,147.25 L67.4353741,147.25 L62.4353741,147.25 L61.4353741,147.25 L61.4353741,149.25 L62.4353741,149.25 Z M72.4353741,149.25 L77.4353741,149.25 L78.4353741,149.25 L78.4353741,147.25 L77.4353741,147.25 L72.4353741,147.25 L71.4353741,147.25 L71.4353741,149.25 L72.4353741,149.25 Z M82.4353741,149.25 L87.4353741,149.25 L88.4353741,149.25 L88.4353741,147.25 L87.4353741,147.25 L82.4353741,147.25 L81.4353741,147.25 L81.4353741,149.25 L82.4353741,149.25 Z M92.4353741,149.25 L97.4353741,149.25 L98.4353741,149.25 L98.4353741,147.25 L97.4353741,147.25 L92.4353741,147.25 L91.4353741,147.25 L91.4353741,149.25 L92.4353741,149.25 Z M102.435374,149.25 L107.435374,149.25 L108.435374,149.25 L108.435374,147.25 L107.435374,147.25 L102.435374,147.25 L101.435374,147.25 L101.435374,149.25 L102.435374,149.25 Z M112.435374,149.25 L117.435374,149.25 L118.435374,149.25 L118.435374,147.25 L117.435374,147.25 L112.435374,147.25 L111.435374,147.25 L111.435374,149.25 L112.435374,149.25 Z M122.435374,149.25 L127.435374,149.25 L128.435374,149.25 L128.435374,147.25 L127.435374,147.25 L122.435374,147.25 L121.435374,147.25 L121.435374,149.25 L122.435374,149.25 Z M132.435374,149.25 L137.435374,149.25 L138.435374,149.25 L138.435374,147.25 L137.435374,147.25 L132.435374,147.25 L131.435374,147.25 L131.435374,149.25 L132.435374,149.25 Z M142.435374,149.25 L147.435374,149.25 L148.435374,149.25 L148.435374,147.25 L147.435374,147.25 L142.435374,147.25 L141.435374,147.25 L141.435374,149.25 L142.435374,149.25 Z" fill="#000000" fill-rule="nonzero"></path>
            </g>
        </g>
    </g>
</svg>