<svg id="Layer_1" data-name="Layer 1" xmlns="http://www.w3.org/2000/svg" viewBox="0 0 518 268.09"><defs><style>.cls-1{fill:#010101;}.cls-2{fill:#d4cb02;}</style></defs><title>BASALT_master</title><path class="cls-1" d="M50.87,185.48V99.84H74c13.95,0,21.78,8.56,21.78,20.55a16.82,16.82,0,0,1-8.56,15.29c10.64,3.79,17.37,12.36,17.37,23.61,0,14.68-9.79,26.18-32.18,26.18ZM71.06,132c8.2,0,12-5,12-11.62C83,115.13,80,110,72.77,110H63.84v22Zm4.53,42.46c10.52,0,15.91-7.34,15.91-15.29a15.29,15.29,0,0,0-15.78-15.54H63.84v30.83Z"/><path class="cls-1" d="M199.76,166.57l11.13-6.36c2.81,7.59,8.56,11.87,15.17,11.87,8,0,12.48-5.51,12.48-13,0-15.29-33-22-33-43.43,0-11.75,9.67-19.82,20.43-19.82,7.83,0,14.44,3.55,18.35,9.79l-9.42,7.71c-2.08-3.18-4.89-5.75-8.56-5.75-4.53,0-7.83,3.55-7.83,8.2,0,12.11,33.16,19.82,33.16,43.19,0,14.32-11.13,25-25.69,25C214.93,183.94,204.16,178.32,199.76,166.57Z"/><path class="cls-1" d="M167.19,157.6H140l-7.1,23.74H119l27.65-85.65h13.83l27.65,85.65H174.28Zm-23.61-11.75h20.07l-7.71-25.94a71.71,71.71,0,0,1-2.33-9.42,79.87,79.87,0,0,1-2.32,9.67Z"/><path class="cls-1" d="M369.29,182.72V97.08h13v73.41h32.18v12.24Z"/><path class="cls-1" d="M439,182.72V109.19H421V97.08h49.06v12.11h-18v73.53Z"/><g id="_Group_" data-name="&lt;Group&gt;"><path class="cls-1" d="M349.11,177.78a6.58,6.58,0,0,1,1.09,3.77c0,3-1.78,5.5-4,5.5H269.16a4,4,0,0,1-3.48-2.87,7.31,7.31,0,0,1,.15-5.61l38.48-82.68c1.48-3.15,5.23-3.15,6.7,0ZM338.84,176l-18.92-40.61L310,156.6,319.07,176ZM315.2,125.27l-7.55-16.21-31.2,67h15Z"/><polygon class="cls-2" points="307.65 109.06 315.2 125.27 291.43 176.04 276.45 176.04 307.65 109.06"/></g></svg>