<svg id="Layer_1" data-name="Layer 1" xmlns="http://www.w3.org/2000/svg" viewBox="0 0 414.34 91.96"><defs><style>.cls-1{fill:#010101;}.cls-2{fill:#d4cb02;}</style></defs><title>BASALT_master</title><path class="cls-1" d="M2.08,89.47V3.83H25.2C39.15,3.83,47,12.39,47,24.38a16.82,16.82,0,0,1-8.56,15.29C49.06,43.47,55.79,52,55.79,63.29,55.79,78,46,89.47,23.61,89.47ZM22.26,36c8.2,0,12-5,12-11.62C34.25,19.12,31.19,14,24,14H15V36Zm4.53,42.46c10.52,0,15.91-7.34,15.91-15.29A15.29,15.29,0,0,0,26.91,47.63H15V78.46Z"/><path class="cls-1" d="M150,72.56,161.1,66.2c2.81,7.59,8.56,11.87,15.17,11.87,8,0,12.48-5.51,12.48-13,0-15.29-33-22-33-43.43,0-11.75,9.67-19.82,20.43-19.82,7.83,0,14.44,3.55,18.35,9.79l-9.42,7.71c-2.08-3.18-4.89-5.75-8.56-5.75-4.53,0-7.83,3.55-7.83,8.2,0,12.11,33.16,19.82,33.16,43.19,0,14.32-11.13,25-25.69,25C165.13,89.94,154.37,84.31,150,72.56Z"/><path class="cls-1" d="M115.39,65.6H88.23l-7.1,23.74H67.18L94.83,3.69h13.83l27.65,85.65H122.49ZM91.77,53.85h20.07l-7.71-25.94a71.71,71.71,0,0,1-2.33-9.42,79.87,79.87,0,0,1-2.32,9.67Z"/><path class="cls-1" d="M313.49,88.71V3.07h13V76.48h32.18V88.71Z"/><path class="cls-1" d="M380.23,88.71V15.18h-18V3.07h49.06V15.18h-18V88.71Z"/><g id="_Group_" data-name="&lt;Group&gt;"><path class="cls-1" d="M293.54,80.3a6.2,6.2,0,0,1,1,3.55c0,2.86-1.68,5.18-3.75,5.18H218.14a3.75,3.75,0,0,1-3.28-2.71A6.89,6.89,0,0,1,215,81l36.29-78c1.39-3,4.94-3,6.32,0Zm-9.69-1.64L266,40.36l-9.35,20,8.54,18.33ZM261.56,30.78l-7.12-15.29L225,78.66h14.13Z"/><polygon class="cls-2" points="254.44 15.49 261.56 30.78 239.14 78.66 225.01 78.66 254.44 15.49"/></g></svg>