<svg id="Layer_1" data-name="Layer 1" xmlns="http://www.w3.org/2000/svg" viewBox="0 0 274 268.09"><defs><style>.cls-1{fill:#010101;}.cls-2{fill:#d4cb02;}</style></defs><title>BASALT_master</title><g id="_Group_" data-name="&lt;Group&gt;"><path class="cls-1" d="M231.75,219.81a15.29,15.29,0,0,1,2.5,8.62c0,6.95-4.07,12.57-9.1,12.57H48.84c-3.35,0-6.38-2.5-8-6.57a16.72,16.72,0,0,1,.32-12.82L129.26,32.48c3.38-7.2,12-7.2,15.32,0Zm-23.53-4L165,122.94,142.3,171.36,163,215.83Zm-54-116.14L136.87,62.61,65.52,215.83H99.79Z"/><polygon class="cls-2" points="136.87 62.61 154.18 99.69 99.79 215.83 65.52 215.83 136.87 62.61"/></g></svg>