<?xml version="1.0" encoding="UTF-8"?>
<svg width="220px" height="220px" viewBox="0 0 220 220" version="1.1" xmlns="http://www.w3.org/2000/svg" xmlns:xlink="http://www.w3.org/1999/xlink">
    <!-- Generator: Sketch 51.2 (57519) - http://www.bohemiancoding.com/sketch -->
    <title>Logo Icon</title>
    <desc>Created with Sketch.</desc>
    <defs></defs>
    <g id="Page-1" stroke="none" stroke-width="1" fill="none" fill-rule="evenodd">
        <g id="Components" transform="translate(-757.000000, -710.000000)">
            <g id="Logo-Icon" transform="translate(757.000000, 710.000000)">
                <rect id="Rectangle" stroke="#3578C7" fill="#4A90E2" x="0.5" y="0.5" width="219" height="219" rx="15"></rect>
                <g id="BASALT_master_icon-black" transform="translate(70.000000, 59.000000)" fill="#FFFFFF">
                    <path d="M78.6339156,78.92337 C79.3206016,79.9711007 79.6772208,81.2007239 79.6576712,82.4532794 C79.6576712,85.2993201 77.990997,87.6007228 75.9312007,87.6007228 L3.73595276,87.6007228 C2.3641202,87.6007228 1.12332836,86.5769672 0.459934705,84.910293 C-0.195884275,83.2124922 -0.148731674,81.3234411 0.590975428,79.660474 L36.6681243,2.21131219 C38.0522419,-0.737104062 41.5821513,-0.737104062 42.9416988,2.21131219 L78.6339156,78.92337 Z M68.9983274,77.2853609 L51.2914499,39.2548863 L41.9916536,59.0829856 L50.4642553,77.293551 L68.9983274,77.2853609 Z M46.8852056,29.7257688 L39.7803414,14.5496152 L10.5623554,77.293551 L24.5959977,77.293551 L46.8852056,29.7257688 Z" id="Shape" fill-rule="nonzero"></path>
                </g>
            </g>
        </g>
    </g>
</svg>