<?xml version="1.0" encoding="UTF-8"?>
<svg width="500px" height="220px" viewBox="0 0 500 220" version="1.1" xmlns="http://www.w3.org/2000/svg" xmlns:xlink="http://www.w3.org/1999/xlink">
    <!-- Generator: Sketch 51.3 (57544) - http://www.bohemiancoding.com/sketch -->
    <title>Site Header</title>
    <desc>Created with Sketch.</desc>
    <defs></defs>
    <g id="Page-1" stroke="none" stroke-width="1" fill="none" fill-rule="evenodd">
        <g id="Patterns" transform="translate(-323.000000, -1029.000000)">
            <g id="Site-Header" transform="translate(323.000000, 1029.000000)">
                <g>
                    <rect id="Rectangle" stroke="#3578C7" fill="#4A90E2" x="0.5" y="0.5" width="499" height="219" rx="15"></rect>
                    <polygon id="Star" fill="#FFFFFF" opacity="0.3" points="79.5660845 49.2419513 72.4178511 53 73.7830422 45.0403252 68 39.4032522 75.9919678 38.2419513 79.5660845 31 83.1402011 38.2419513 91.1321689 39.4032522 85.3491267 45.0403252 86.7143178 53"></polygon>
                    <polygon id="Star" fill="#FFFFFF" opacity="0.6" points="59.19474 50.3878494 50.4219082 55 52.09737 45.2313082 45 38.3130823 54.8083241 36.8878494 59.19474 28 63.5811559 36.8878494 73.3894801 38.3130823 66.29211 45.2313082 67.9675718 55"></polygon>
                    <polygon id="Star" stroke="#7BAEE9" fill="#FFFFFF" points="38.8233956 51.5337474 28.4259653 57 30.4116978 45.4222912 22 37.2229124 33.6246804 35.5337474 38.8233956 25 44.0221107 35.5337474 55.6467912 37.2229124 47.2350934 45.4222912 49.2208259 57"></polygon>
                    <rect id="Rectangle-2" fill="#FFFFFF" opacity="0.740345982" x="423" y="39" width="52" height="10" rx="5"></rect>
                    <rect id="Rectangle-Copy" fill="#FFFFFF" opacity="0.275" x="10" y="13" width="480" height="60" rx="15"></rect>
                    <rect id="Rectangle-2" fill="#FFFFFF" opacity="0.740345982" x="308" y="39" width="101" height="10" rx="5"></rect>
                    <rect id="Rectangle-2" fill="#FFFFFF" opacity="0.740345982" x="232" y="39" width="60" height="10" rx="5"></rect>
                    <rect id="Rectangle-2" fill="#FFFFFF" opacity="0.740345982" x="156" y="39" width="60" height="10" rx="5"></rect>
                </g>
            </g>
        </g>
    </g>
</svg>