<?xml version="1.0" encoding="UTF-8"?>
<svg width="500px" height="220px" viewBox="0 0 500 220" version="1.1" xmlns="http://www.w3.org/2000/svg" xmlns:xlink="http://www.w3.org/1999/xlink">
    <!-- Generator: Sketch 51.3 (57544) - http://www.bohemiancoding.com/sketch -->
    <title>Site Footer</title>
    <desc>Created with Sketch.</desc>
    <defs></defs>
    <g id="Page-1" stroke="none" stroke-width="1" fill="none" fill-rule="evenodd">
        <g id="Patterns" transform="translate(-893.000000, -1022.000000)">
            <g id="Site-Footer" transform="translate(893.000000, 1022.000000)">
                <g>
                    <rect id="Rectangle" stroke="#3578C7" fill="#4A90E2" x="0.5" y="0.5" width="499" height="219" rx="15"></rect>
                    <rect id="Rectangle-Copy" fill="#FFFFFF" opacity="0.275" x="10" y="46" width="480" height="164" rx="15"></rect>
                    <ellipse id="Oval-2" fill-opacity="0.3" fill="#FFFFFF" cx="308" cy="81.5" rx="15" ry="14.5"></ellipse>
                    <polygon id="Star" stroke="#A2C6EF" fill="#FFFFFF" opacity="0.500892857" points="308.049735 87.4816975 301.790454 90.7054378 302.98587 83.8774463 297.922005 79.0418358 304.920094 78.0456453 308.049735 71.8333333 311.179376 78.0456453 318.177465 79.0418358 313.1136 83.8774463 314.309016 90.7054378"></polygon>
                    <ellipse id="Oval-2" fill-opacity="0.3" fill="#FFFFFF" cx="357" cy="81.5" rx="15" ry="14.5"></ellipse>
                    <polygon id="Star" stroke="#A2C6EF" fill="#FFFFFF" opacity="0.500892857" points="357.519527 87.4816975 351.260245 90.7054378 352.455662 83.8774463 347.391797 79.0418358 354.389886 78.0456453 357.519527 71.8333333 360.649167 78.0456453 367.647257 79.0418358 362.583392 83.8774463 363.778808 90.7054378"></polygon>
                    <ellipse id="Oval-2" fill-opacity="0.3" fill="#FFFFFF" cx="407" cy="81.5" rx="15" ry="14.5"></ellipse>
                    <polygon id="Star" stroke="#A2C6EF" fill="#FFFFFF" opacity="0.500892857" points="406.989318 87.4816975 400.730037 90.7054378 401.925453 83.8774463 396.861589 79.0418358 403.859678 78.0456453 406.989318 71.8333333 410.118959 78.0456453 417.117048 79.0418358 412.053183 83.8774463 413.2486 90.7054378"></polygon>
                    <ellipse id="Oval-2" fill-opacity="0.3" fill="#FFFFFF" cx="456" cy="81.5" rx="15" ry="14.5"></ellipse>
                    <polygon id="Star" stroke="#A2C6EF" fill="#FFFFFF" opacity="0.500892857" points="456.45911 87.4816975 450.199829 90.7054378 451.395245 83.8774463 446.33138 79.0418358 453.329469 78.0456453 456.45911 71.8333333 459.588751 78.0456453 466.58684 79.0418358 461.522975 83.8774463 462.718391 90.7054378"></polygon>
                    <rect id="Rectangle-2" fill="#FFFFFF" opacity="0.602901786" x="39" y="75" width="101" height="10" rx="5"></rect>
                    <rect id="Rectangle-2" fill="#FFFFFF" opacity="0.602901786" x="39" y="99" width="119" height="10" rx="5"></rect>
                    <rect id="Rectangle-2" fill="#FFFFFF" opacity="0.602901786" x="39" y="123" width="133" height="10" rx="5"></rect>
                    <rect id="Rectangle-2" fill="#FFFFFF" opacity="0.602901786" x="39" y="147" width="119" height="10" rx="5"></rect>
                    <rect id="Rectangle-2" fill="#FFFFFF" opacity="0.602901786" x="39" y="170" width="101" height="10" rx="5"></rect>
                </g>
            </g>
        </g>
    </g>
</svg>