<svg id="Layer_1" data-name="Layer 1" xmlns="http://www.w3.org/2000/svg" viewBox="0 0 414.34 92.16"><defs><style>.cls-1{fill:#fff;}.cls-2{fill:#d4cb02;}</style></defs><title>BASALT_master</title><path class="cls-1" d="M2.55,89.16V3.52H25.68c13.95,0,21.78,8.56,21.78,20.55a16.82,16.82,0,0,1-8.56,15.29C49.54,43.16,56.26,51.72,56.26,63c0,14.68-9.79,26.18-32.18,26.18ZM22.74,35.7c8.2,0,12-5,12-11.62,0-5.26-3.06-10.4-10.28-10.4H15.52v22Zm4.53,42.46c10.52,0,15.91-7.34,15.91-15.29A15.29,15.29,0,0,0,27.39,47.32H15.52V78.15Z"/><path class="cls-1" d="M150.44,73.25l11.13-6.36c2.81,7.59,8.56,11.87,15.17,11.87,8,0,12.48-5.51,12.48-13,0-15.29-33-22-33-43.43,0-11.75,9.67-19.82,20.43-19.82,7.83,0,14.44,3.55,18.35,9.79L185.55,20c-2.08-3.18-4.89-5.75-8.56-5.75-4.53,0-7.83,3.55-7.83,8.2,0,12.11,33.16,19.82,33.16,43.19,0,14.32-11.13,25-25.69,25C165.61,90.63,154.85,85,150.44,73.25Z"/><path class="cls-1" d="M115.87,65.29H88.7L81.61,89H67.66L95.31,3.38h13.83L136.79,89H123ZM92.25,53.54h20.07L104.61,27.6a71.71,71.71,0,0,1-2.33-9.42A79.87,79.87,0,0,1,100,27.85Z"/><path class="cls-1" d="M314,89.4V3.76h13V77.17h32.18V89.4Z"/><path class="cls-1" d="M380.71,89.4V15.87h-18V3.76h49.06V15.87h-18V89.4Z"/><path class="cls-1" d="M294,80a6.2,6.2,0,0,1,1,3.55c0,2.86-1.68,5.18-3.75,5.18H218.61A3.75,3.75,0,0,1,215.33,86a6.89,6.89,0,0,1,.14-5.29l36.29-78c1.39-3,4.94-3,6.32,0Zm-9.69-1.64-17.84-38.3-9.35,20,8.54,18.33ZM262,30.47l-7.12-15.29L225.49,78.35h14.13Z"/><polygon class="cls-2" points="254.92 15.18 262.04 30.47 239.62 78.35 225.49 78.35 254.92 15.18"/></svg>