<svg id="Layer_1" data-name="Layer 1" xmlns="http://www.w3.org/2000/svg" viewBox="0 0 414 92.16"><defs><style>.cls-1{fill:#fff;}.cls-2{fill:#d1d3d4;}</style></defs><title>BASALT_master</title><path class="cls-1" d="M2.38,89.21V3.57H25.51c13.95,0,21.78,8.56,21.78,20.55a16.82,16.82,0,0,1-8.56,15.29C49.37,43.21,56.09,51.77,56.09,63c0,14.68-9.79,26.18-32.18,26.18ZM22.57,35.75c8.2,0,12-5,12-11.62,0-5.26-3.06-10.4-10.28-10.4H15.35v22ZM27.1,78.2C37.62,78.2,43,70.86,43,62.91A15.29,15.29,0,0,0,27.22,47.37H15.35V78.2Z"/><path class="cls-1" d="M150.27,73.3l11.13-6.36c2.81,7.59,8.56,11.87,15.17,11.87,8,0,12.48-5.51,12.48-13,0-15.29-33-22-33-43.43,0-11.75,9.67-19.82,20.43-19.82,7.83,0,14.44,3.55,18.35,9.79l-9.42,7.71c-2.08-3.18-4.89-5.75-8.56-5.75-4.53,0-7.83,3.55-7.83,8.2,0,12.11,33.16,19.82,33.16,43.19,0,14.32-11.13,25-25.69,25C165.44,90.68,154.68,85,150.27,73.3Z"/><path class="cls-1" d="M115.7,65.34H88.54l-7.1,23.74H67.49L95.14,3.43H109l27.65,85.65H122.79ZM92.08,53.59h20.07l-7.71-25.94a71.71,71.71,0,0,1-2.33-9.42,79.87,79.87,0,0,1-2.32,9.67Z"/><path class="cls-1" d="M313.8,89.45V3.81h13V77.22h32.18V89.45Z"/><path class="cls-1" d="M380.54,89.45V15.92h-18V3.81h49.06V15.92h-18V89.45Z"/><path class="cls-1" d="M293.85,80a6.19,6.19,0,0,1,1,3.56c0,2.86-1.68,5.18-3.75,5.18H218.44a3.76,3.76,0,0,1-3.28-2.71,6.89,6.89,0,0,1,.15-5.29l36.29-78c1.39-3,4.93-3,6.31,0Zm-9.69-1.64L266.32,40.1l-9.35,20,8.54,18.33ZM261.87,30.52l-7.12-15.29L225.32,78.4h14.13Z"/><polygon class="cls-2" points="254.75 15.23 261.87 30.52 239.45 78.4 225.32 78.4 254.75 15.23"/></svg>